Coordinates
version=1
nRows=35
nColumns=18
inDegrees=yes

Units are S.I. units (second, meters, Newtons, ...)
If the header above contains a line with 'inDegrees', this indicates whether rotational values are in degrees (yes) or radians (no).

endheader
time	ground_thorax_rot_x	ground_thorax_rot_y	ground_thorax_rot_z	ground_thorax_tx	ground_thorax_ty	ground_thorax_tz	clav_prot	clav_elev	scapula_abduction	scapula_elevation	scapula_upward_rot	scapula_winging	plane_elv	shoulder_elv	axial_rot	elbow_flexion	pro_sup
      4.17000000	      3.10777436	     -9.76286029	     -8.29776732	     -0.00616459	      0.00390287	      0.00462955	    -22.66649534	     -3.71820788	    -14.25821292	     -2.89736560	     10.43612056	      5.87903251	    -25.92974621	     16.49147339	     51.67959776	      0.00000000	     34.32000000
      4.18000000	      3.10784541	     -9.76257539	     -8.29728832	     -0.00616644	      0.00388190	      0.00463431	    -22.66675254	     -3.71850389	    -14.25853033	     -2.89763415	     10.43620959	      5.87910142	    -25.92966622	     16.49123171	     51.67948936	      0.00000000	     34.32000000
      4.19000000	      3.10770091	     -9.76247220	     -8.29721379	     -0.00620356	      0.00392305	      0.00464536	    -22.66697467	     -3.71853604	    -14.25891493	     -2.89766829	     10.43619454	      5.87912183	    -25.92959351	     16.49098166	     51.67937262	      0.00000000	     34.32000000
      4.20000000	      3.10760026	     -9.76277769	     -8.29745462	     -0.00625806	      0.00397562	      0.00463826	    -22.66721740	     -3.71837953	    -14.25949878	     -2.89750173	     10.43597470	      5.87914287	    -25.92960206	     16.49072055	     51.67923976	      0.00000000	     34.32000000
      4.21000000	      3.10686206	     -9.76324461	     -8.29767686	     -0.00629754	      0.00399600	      0.00467702	    -22.66788930	     -3.71792805	    -14.26073734	     -2.89721715	     10.43605822	      5.87901673	    -25.92959818	     16.49091462	     51.67898455	      0.00000000	     34.32000000
      4.22000000	      3.08253647	     -9.77858518	     -8.30663675	     -0.00626692	      0.00389307	      0.00478197	    -22.68914003	     -3.70050340	    -14.29369157	     -2.88930485	     10.45146722	      5.87083713	    -25.93173494	     16.51840028	     51.67318283	      0.00000000	     34.32000000
      4.23000000	      3.20822242	     -9.67332769	     -8.24771907	     -0.00632172	      0.00403446	      0.00498658	    -22.84111424	     -3.66928757	    -14.52090228	     -2.89654644	     10.53165790	      5.84589046	    -25.95819021	     16.63109234	     51.56215555	      0.00000000	     34.32000000
      4.24000000	      3.20571860	     -9.65459064	     -8.28102572	     -0.00635801	      0.00393696	      0.00511353	    -22.84746151	     -3.64144580	    -14.54372775	     -2.87323592	     10.52357444	      5.84010829	    -25.97011669	     16.64078771	     51.54642188	      0.00000000	     34.32000000
      4.25000000	      3.22824565	     -9.64013414	     -8.28705467	     -0.00640776	      0.00394237	      0.00519681	    -22.84929958	     -3.63426836	    -14.55692154	     -2.86385200	     10.50919211	      5.84210897	    -25.97948470	     16.63064860	     51.53286149	      0.00000000	     34.32000000
      4.26000000	      3.25498058	     -9.63130054	     -8.29389573	     -0.00643181	      0.00394802	      0.00522000	    -22.84942538	     -3.62792136	    -14.57094716	     -2.85294698	     10.48733075	      5.84600647	    -25.99083092	     16.61446036	     51.51952708	      0.00000000	     34.32000000
      4.27000000	      3.25542668	     -9.63121176	     -8.29417889	     -0.00645743	      0.00395429	      0.00521720	    -22.84939315	     -3.62772241	    -14.57119593	     -2.85266405	     10.48687346	      5.84607208	    -25.99104642	     16.61419274	     51.51928764	      0.00000000	     34.32000000
      4.28000000	      3.28037555	     -9.60423921	     -8.30496014	     -0.00649923	      0.00400118	      0.00535152	    -22.84036408	     -3.61397289	    -14.57377583	     -2.83428076	     10.46063825	      5.84879363	    -25.99893278	     16.59745681	     51.50423658	      0.00000000	     34.32000000
      4.29000000	      3.27406957	     -9.52408889	     -8.29958128	     -0.00660290	      0.00397927	      0.00528407	    -22.82470491	     -3.57500210	    -14.56155006	     -2.80107639	     10.45271046	      5.83957341	    -25.99385413	     16.59195066	     51.47325966	      0.00000000	     34.32000000
      4.30000000	      3.27458888	     -9.52377002	     -8.29926357	     -0.00655467	      0.00399358	      0.00526650	    -22.82457385	     -3.57497522	    -14.56156623	     -2.80093025	     10.45228421	      5.83967360	    -25.99384820	     16.59138731	     51.47301633	      0.00000000	     34.32000000
      4.31000000	      3.30240183	     -9.52126798	     -8.29521011	     -0.00657138	      0.00403292	      0.00529876	    -22.81970077	     -3.57200570	    -14.56830076	     -2.79120056	     10.42633485	      5.84545519	    -25.99932357	     16.56511379	     51.46156928	      0.00000000	     34.32000000
      4.32000000	      3.30315432	     -9.52234208	     -8.29575769	     -0.00667968	      0.00397413	      0.00527627	    -22.81985782	     -3.57173312	    -14.56897169	     -2.79081324	     10.42569809	      5.84555471	    -25.99974508	     16.56514097	     51.46132717	      0.00000000	     34.32000000
      4.33000000	      3.33045260	     -9.55672649	     -8.30979880	     -0.00666932	      0.00385686	      0.00540120	    -22.82600748	     -3.55968459	    -14.59480706	     -2.77593978	     10.40410924	      5.84800476	    -26.01774809	     16.57089673	     51.45063674	      0.00000000	     34.32000000
      4.34000000	      3.33107416	     -9.55658929	     -8.30893522	     -0.00665442	      0.00374608	      0.00542643	    -22.82615441	     -3.56009591	    -14.59484845	     -2.77631692	     10.40429364	      5.84807474	    -26.01783402	     16.57117069	     51.45045018	      0.00000000	     34.32000000
      4.35000000	      3.36466171	     -9.51854289	     -8.26903590	     -0.00663062	      0.00379989	      0.00544476	    -22.83975257	     -3.57132986	    -14.59692083	     -2.79501562	     10.43766572	      5.84288342	    -26.02531756	     16.62130057	     51.42641203	      0.00000000	     34.32000000
      4.36000000	      3.39681750	     -9.44452736	     -8.25656880	     -0.00662390	      0.00385695	      0.00546201	    -22.83810870	     -3.56872758	    -14.58727419	     -2.79664719	     10.45123431	      5.83858863	    -26.03218512	     16.65591643	     51.39637091	      0.00000000	     34.32000000
      4.37000000	      3.39681802	     -9.44413410	     -8.25650676	     -0.00660835	      0.00388833	      0.00546576	    -22.83805488	     -3.56860561	    -14.58723322	     -2.79654024	     10.45119955	      5.83856245	    -26.03221116	     16.65587474	     51.39615769	      0.00000000	     34.32000000
      4.38000000	      3.39659206	     -9.44446757	     -8.25698040	     -0.00665319	      0.00398599	      0.00540674	    -22.83805496	     -3.56814516	    -14.58749215	     -2.79611804	     10.45095647	      5.83849794	    -26.03234972	     16.65562140	     51.39592602	      0.00000000	     34.32000000
      4.39000000	      3.39571222	     -9.44450414	     -8.25733260	     -0.00666568	      0.00408983	      0.00538167	    -22.83804261	     -3.56751720	    -14.58762233	     -2.79564186	     10.45098913	      5.83831494	    -26.03242317	     16.65537713	     51.39570179	      0.00000000	     34.32000000
      4.40000000	      3.34857065	     -9.41018978	     -8.25080332	     -0.00664023	      0.00400918	      0.00530644	    -22.83227793	     -3.53506874	    -14.58630488	     -2.77031210	     10.45118372	      5.82912405	    -26.03891748	     16.62273716	     51.37022582	      0.00000000	     34.32000000
      4.41000000	      3.34908474	     -9.40912690	     -8.25001352	     -0.00652664	      0.00393684	      0.00534180	    -22.83211505	     -3.53537204	    -14.58600749	     -2.77050283	     10.45106305	      5.82923504	    -26.03887738	     16.62229903	     51.36999895	      0.00000000	     34.32000000
      4.42000000	      3.34937838	     -9.40853509	     -8.24998859	     -0.00649558	      0.00389377	      0.00537974	    -22.83209529	     -3.53532278	    -14.58601354	     -2.77045019	     10.45101432	      5.82923357	    -26.03893274	     16.62248463	     51.36979216	      0.00000000	     34.32000000
      4.43000000	      3.35827890	     -9.41447137	     -8.27657181	     -0.00648695	      0.00384518	      0.00540188	    -22.83817179	     -3.51581213	    -14.60537371	     -2.75399985	     10.44459189	      5.82568907	    -26.04634355	     16.64839862	     51.35917521	      0.00000000	     34.32000000
      4.44000000	      3.35839101	     -9.41536277	     -8.27740753	     -0.00657712	      0.00390319	      0.00534649	    -22.83838457	     -3.51528100	    -14.60604244	     -2.75352526	     10.44430949	      5.82562226	    -26.04652150	     16.64872964	     51.35895389	      0.00000000	     34.32000000
      4.45000000	      3.35819363	     -9.41582156	     -8.27782729	     -0.00657668	      0.00399965	      0.00527826	    -22.83847709	     -3.51476735	    -14.60648945	     -2.75306110	     10.44404266	      5.82555274	    -26.04653572	     16.64854722	     51.35872724	      0.00000000	     34.32000000
      4.46000000	      3.35753447	     -9.41557517	     -8.27774437	     -0.00654425	      0.00409699	      0.00525534	    -22.83843575	     -3.51435071	    -14.60654722	     -2.75272899	     10.44401295	      5.82544456	    -26.04634525	     16.64801927	     51.35850218	      0.00000000	     34.32000000
      4.47000000	      3.33362562	     -9.38677035	     -8.24339182	     -0.00664434	      0.00412659	      0.00524415	    -22.83283328	     -3.50414955	    -14.60203269	     -2.74330931	     10.43963024	      5.82362445	    -26.02947003	     16.59743327	     51.33875402	      0.00000000	     34.32000000
      4.48000000	      3.33403710	     -9.38611249	     -8.24260565	     -0.00660865	      0.00401651	      0.00529351	    -22.83274073	     -3.50446047	    -14.60181242	     -2.74353139	     10.43958632	      5.82371910	    -26.02929067	     16.59708545	     51.33854184	      0.00000000	     34.32000000
      4.49000000	      3.35331716	     -9.35284788	     -8.22129262	     -0.00665822	      0.00396533	      0.00537488	    -22.82665914	     -3.51477290	    -14.58819812	     -2.75125000	     10.44007890	      5.82624952	    -26.01794292	     16.58249462	     51.32802228	      0.00000000	     34.32000000
      4.50000000	      3.36092177	     -9.30518283	     -8.20522973	     -0.00666700	      0.00394590	      0.00540424	    -22.82010941	     -3.52032291	    -14.56779921	     -2.75890351	     10.45375505	      5.82404837	    -26.00093199	     16.58606456	     51.31751158	      0.00000000	     34.32000000
      4.51000000	      3.36553047	     -9.25671651	     -8.19417870	     -0.00665798	      0.00397444	      0.00535390	    -22.81367141	     -3.52225799	    -14.54938664	     -2.76336739	     10.46594706	      5.82122751	    -25.98135167	     16.58933831	     51.30566481	      0.00000000	     34.32000000
